<?xml version="1.0" encoding="UTF-8"?>
<svg width="752pt" height="752pt" version="1.1" viewBox="0 0 752 752" xmlns="http://www.w3.org/2000/svg">
 <defs>
  <clipPath id="a">
   <path d="m139.21 139.21h473.58v473.58h-473.58z"/>
  </clipPath>
 </defs>
 <g clip-path="url(#a)">
  <path d="m376 139.21c-62.801 0-123.03 24.949-167.43 69.355s-69.355 104.63-69.355 167.43c1.3164 154.84 119.05 236.79 236.79 236.79 117.74 0 235.61-82.086 236.79-236.79l0.003907-0.003906c0-62.801-24.949-123.03-69.355-167.43s-104.64-69.355-167.44-69.355zm-119.71 409.65c9.5898-35.289 34.258-64.547 67.418-79.961 33.16-15.414 71.43-15.414 104.59 0 33.156 15.414 57.828 44.672 67.414 79.961-35.117 24.484-76.898 37.613-119.71 37.613-42.809 0-84.594-13.129-119.71-37.613zm46.043-191.41c0-19.539 7.7617-38.277 21.578-52.09 13.816-13.816 32.555-21.578 52.09-21.578 19.539 0 38.277 7.7617 52.094 21.578 13.812 13.812 21.574 32.551 21.574 52.09s-7.7617 38.277-21.574 52.09c-13.816 13.816-32.555 21.578-52.094 21.578-19.535 0-38.273-7.7617-52.09-21.578-13.816-13.812-21.578-32.551-21.578-52.09zm215.35 173.78c-14.883-41.043-46.777-73.656-87.48-89.453 24.352-15.711 40.688-41.211 44.777-69.898 4.0938-28.691-4.4648-57.742-23.453-79.629-18.992-21.891-46.543-34.465-75.523-34.465-28.977 0-56.531 12.574-75.52 34.465-18.988 21.887-27.547 50.938-23.457 79.629 4.0898 28.688 20.43 54.188 44.777 69.898-40.699 15.797-72.594 48.41-87.48 89.453-31.406-28.59-53.434-66.012-63.18-107.35-9.75-41.34-6.7617-84.656 8.5625-124.27 15.328-39.609 42.281-73.656 77.316-97.664 35.031-24.012 76.512-36.859 118.98-36.859 42.473 0 83.949 12.848 118.98 36.859 35.035 24.008 61.988 58.055 77.312 97.664 15.328 39.609 18.312 82.926 8.5664 124.27-9.7461 41.336-31.773 78.758-63.184 107.35z"/>
 </g>
</svg>
